<svg width="40" height="40" viewBox="0 0 40 40" fill="none" xmlns="http://www.w3.org/2000/svg">
  <rect width="40" height="40" rx="20" fill="white"/>
  <path d="M12.5 12.5H14.1667L15.5417 24.1C15.625 24.75 16.1667 25.25 16.8333 25.25H26.1667C26.8333 25.25 27.375 24.75 27.4583 24.1L28.8333 14.5833H14.6667" stroke="#090917" stroke-width="2" stroke-linecap="round" stroke-linejoin="round"/>
  <path d="M17.5 28.3333C18.2583 28.3333 18.875 27.7167 18.875 26.9583C18.875 26.2 18.2583 25.5833 17.5 25.5833C16.7417 25.5833 16.125 26.2 16.125 26.9583C16.125 27.7167 16.7417 28.3333 17.5 28.3333Z" fill="#090917"/>
  <path d="M24.5 28.3333C25.2583 28.3333 25.875 27.7167 25.875 26.9583C25.875 26.2 25.2583 25.5833 24.5 25.5833C23.7417 25.5833 23.125 26.2 23.125 26.9583C23.125 27.7167 23.7417 28.3333 24.5 28.3333Z" fill="#090917"/>
</svg>
